<svg preserveAspectRatio="none" width="100%" height="100%" overflow="visible" style="display: block;" viewBox="0 0 36.8572 34" fill="none" xmlns="http://www.w3.org/2000/svg">
<g id="Group 1420069763">
<path id="Vector 9768" d="M4.85718 12.4286H32" stroke="var(--stroke-0, black)" stroke-width="2"/>
<rect id="Rectangle 34626518" x="4.67861" y="13" width="28" height="20" fill="var(--fill-0, black)"/>
<path id="Vector" d="M18.4912 15C15.6088 15.3081 14.0075 16.5113 13.6871 18.6083C13.623 19.287 13.9752 19.6572 14.7441 19.7187C15.1281 19.7806 15.4484 19.503 15.7047 18.886C16.0891 17.5907 17.0167 16.943 18.4912 16.943C20.2837 17.0662 21.2446 17.9298 21.374 19.5336C21.374 21.0143 20.3305 21.2556 19.7636 21.702C19.0454 22.2679 18.5757 22.8419 18.0007 23.8148C17.5175 24.6322 17.4342 26.3809 17.4342 26.3809C17.4342 27.1211 17.7856 27.4913 18.4912 27.4913C19.1307 27.4913 19.4841 27.1211 19.5484 26.3809C19.5484 26.3809 19.633 24.4184 20.4558 23.5507C21.3883 22.5672 23.6156 21.8777 23.6797 19.3487C23.4234 16.6962 21.6939 15.2466 18.4912 15ZM18.4912 28.4245C17.7525 28.4245 17.1541 29.0012 17.1541 29.7121C17.1541 30.4234 17.7525 31 18.4912 31C19.2298 31 19.8285 30.4235 19.8285 29.7121C19.8285 29.0012 19.2298 28.4245 18.4912 28.4245Z" fill="var(--fill-0, white)"/>
<path id="Vector 9775" d="M5.00003 12.4286V33" stroke="var(--stroke-0, black)" stroke-width="2"/>
<path id="Vector 9776" d="M32.4286 12.4286V33" stroke="var(--stroke-0, black)" stroke-width="2"/>
<path id="Vector 9773" d="M1.00003 33H35.8572" stroke="var(--stroke-0, black)" stroke-width="2" stroke-linecap="round"/>
<path id="Vector 9767" d="M1.00003 15.2857L18.7143 1L35.8572 15.2857" stroke="var(--stroke-0, black)" stroke-width="2" stroke-linecap="round" stroke-linejoin="round"/>
</g>
</svg>
