<svg preserveAspectRatio="none" width="100%" height="100%" overflow="visible" style="display: block;" viewBox="0 0 149.09 23.9906" fill="none" xmlns="http://www.w3.org/2000/svg">
<g id="ChainLex">
<path id="Vector" d="M130.682 23.5705L137.228 14.9665L131.017 6.75487H136.221L139.886 11.6875L143.606 6.75487H148.754L142.571 14.9665L149.09 23.5705H143.886L139.886 18.1895L135.829 23.5705H130.682Z" fill="var(--fill-0, white)"/>
<path id="Vector_2" d="M121.864 23.9074C120.055 23.9074 118.479 23.5524 117.136 22.8425C115.793 22.1138 114.758 21.0955 114.03 19.7876C113.303 18.461 112.939 16.9009 112.939 15.1073C112.939 13.3136 113.294 11.7722 114.003 10.483C114.711 9.17507 115.718 8.17548 117.024 7.48417C118.348 6.77417 119.905 6.41918 121.696 6.41918C123.449 6.41918 124.95 6.75549 126.2 7.42811C127.468 8.10074 128.438 9.06297 129.109 10.3148C129.781 11.5666 130.116 13.0614 130.116 14.799V16.3684H117.388C117.574 17.6203 118.05 18.5731 118.814 19.2271C119.579 19.881 120.586 20.208 121.836 20.208C122.824 20.208 123.607 20.0398 124.186 19.7035C124.764 19.3672 125.174 18.8534 125.417 18.1621H130.06C129.687 19.9558 128.783 21.3664 127.347 22.394C125.911 23.403 124.083 23.9074 121.864 23.9074ZM117.499 13.2856H125.668C125.519 12.2206 125.109 11.4265 124.437 10.9033C123.766 10.3615 122.861 10.0906 121.724 10.0906C120.586 10.0906 119.654 10.3615 118.926 10.9033C118.218 11.4452 117.742 12.2393 117.499 13.2856Z" fill="var(--fill-0, white)"/>
<path id="Vector_3" d="M95.541 23.5706V0.869487H100.269V19.4227H111.935V23.5706H95.541Z" fill="var(--fill-0, white)"/>
<path id="Vector_4" d="M74.3799 23.5714V11.352H72.0859V6.75576H76.7858V9.50232H77.9608C78.6136 8.53075 79.4342 7.78339 80.4226 7.26023C81.4111 6.7184 82.642 6.44748 84.1154 6.44748C86.4467 6.44748 88.2465 7.09208 89.5147 8.38127C90.8016 9.65179 91.445 11.3614 91.445 13.51V23.5714H86.8011V14.3789C86.8011 13.1457 86.4654 12.2115 85.794 11.5762C85.1412 10.9223 84.1807 10.5953 82.9125 10.5953C81.6442 10.5953 80.6744 10.9223 80.003 11.5762C79.3503 12.2115 79.0239 13.1457 79.0239 14.3789V23.5714H74.3799Z" fill="var(--fill-0, white)"/>
<path id="Vector_5" d="M64.7687 23.5699V6.75428H69.4127V23.5699H64.7687ZM67.0907 5.10074C66.382 5.10074 65.7758 4.85785 65.2723 4.37207C64.7874 3.8676 64.5449 3.26037 64.5449 2.55037C64.5449 1.84038 64.7874 1.24249 65.2723 0.756703C65.7758 0.252235 66.382 0 67.0907 0C67.7994 0 68.3962 0.252235 68.8811 0.756703C69.3847 1.24249 69.6365 1.84038 69.6365 2.55037C69.6365 3.26037 69.3847 3.8676 68.8811 4.37207C68.3962 4.85785 67.7994 5.10074 67.0907 5.10074Z" fill="var(--fill-0, white)"/>
<path id="Vector_6" d="M50.0178 23.8794C48.0408 23.8794 46.4929 23.403 45.3738 22.4501C44.2548 21.4785 43.6953 20.208 43.6953 18.6385C43.6953 16.9757 44.2735 15.6958 45.4298 14.799C46.5861 13.9021 48.246 13.4537 50.4094 13.4537H55.2212V12.8091C55.2212 10.9968 54.1395 10.0906 51.9761 10.0906C50.0924 10.0906 48.9547 10.7445 48.5631 12.0524H43.9471C44.3201 10.2027 45.1873 8.80139 46.5488 7.84851C47.9103 6.89562 49.7194 6.41918 51.9761 6.41918C54.4752 6.41918 56.3776 6.9797 57.6831 8.10074C59.0073 9.22178 59.6693 10.8566 59.6693 13.0053V18.9749H61.8514V23.5711H57.1516V20.8246H55.9766C55.3984 21.7961 54.6244 22.5529 53.6546 23.0947C52.6848 23.6178 51.4725 23.8794 50.0178 23.8794ZM50.7172 20.3481C51.5937 20.3481 52.3677 20.1893 53.0391 19.8717C53.7106 19.5541 54.2421 19.1337 54.6338 18.6105C55.0254 18.0687 55.2212 17.4614 55.2212 16.7888V16.5366H50.6332C48.9547 16.5366 48.1154 17.1625 48.1154 18.4143C48.1154 19.0309 48.3486 19.5074 48.8148 19.8437C49.2811 20.18 49.9152 20.3481 50.7172 20.3481Z" fill="var(--fill-0, white)"/>
<path id="Vector_7" d="M23.9746 23.5702V0.0282998H28.6186V9.1648H28.7305C29.2713 8.26796 29.9987 7.59534 30.9125 7.14692C31.8264 6.67982 32.9081 6.44627 34.1577 6.44627C36.2652 6.44627 37.9344 7.09087 39.1653 8.38007C40.4149 9.65058 41.0397 11.3602 41.0397 13.5088V23.5702H36.3958V14.3776C36.3958 13.1445 36.06 12.2103 35.3886 11.575C34.7359 10.9211 33.7754 10.5941 32.5072 10.5941C31.2389 10.5941 30.2691 10.9211 29.5977 11.575C28.9449 12.2103 28.6186 13.1445 28.6186 14.3776V23.5702H23.9746Z" fill="var(--fill-0, white)"/>
<path id="Vector_8" d="M11.4979 23.9906C9.1853 23.9906 7.16174 23.5142 5.42726 22.5613C3.71142 21.5897 2.37792 20.2258 1.42675 18.4695C0.475584 16.6945 0 14.6299 0 12.2757C0 9.88418 0.475584 7.81025 1.42675 6.05395C2.37792 4.29765 3.71142 2.94306 5.42726 1.99017C7.16174 1.0186 9.1853 0.532817 11.4979 0.532817C13.363 0.532817 15.0135 0.859788 16.4496 1.51373C17.9043 2.14899 19.0886 3.06451 20.0025 4.26029C20.935 5.45606 21.5225 6.88539 21.765 8.54827H16.8413C16.6361 7.33381 16.058 6.39961 15.1068 5.74567C14.1556 5.07304 12.9527 4.73673 11.4979 4.73673C9.40911 4.73673 7.75855 5.40001 6.54628 6.72658C5.334 8.05315 4.72787 9.90287 4.72787 12.2757C4.72787 14.6299 5.334 16.4797 6.54628 17.8249C7.75855 19.1515 9.40911 19.8148 11.4979 19.8148C12.9527 19.8148 14.1556 19.4784 15.1068 18.8058C16.058 18.1332 16.6361 17.1896 16.8413 15.9752H21.765C21.5225 17.6381 20.935 19.0767 20.0025 20.2912C19.0886 21.487 17.9043 22.4025 16.4496 23.0378C15.0135 23.673 13.363 23.9906 11.4979 23.9906Z" fill="var(--fill-0, white)"/>
</g>
</svg>
